HIERARCHY
ROOT Hips
{
 OFFSET 0.000000 0.000000 0.000000
 CHANNELS 6 Xposition Yposition Zposition Yrotation Xrotation Zrotation
 JOINT Chest
 {
  OFFSET 0.000000 9.585900 0.002600
  CHANNELS 3 Yrotation Xrotation Zrotation
  JOINT Chest2
  {
   OFFSET 0.000000 9.601200 -0.005300
   CHANNELS 3 Yrotation Xrotation Zrotation
   JOINT Chest3
   {
    OFFSET 0.000000 9.561800 0.000000
    CHANNELS 3 Yrotation Xrotation Zrotation
    JOINT Chest4
    {
     OFFSET 0.000000 9.552100 0.000000
     CHANNELS 3 Yrotation Xrotation Zrotation
     JOINT Neck
     {
      OFFSET 0.000000 14.453000 0.000000
      CHANNELS 3 Yrotation Xrotation Zrotation
      JOINT Head
      {
       OFFSET 0.000000 8.936500 -0.011300
       CHANNELS 3 Yrotation Xrotation Zrotation
       End Site
       {
        OFFSET 0.000000 17.073600 -0.006000
       }
      }
     }
     JOINT RightCollar
     {
      OFFSET -2.921100 9.558500 0.000000
      CHANNELS 3 Yrotation Xrotation Zrotation
      JOINT RightShoulder
      {
       OFFSET -13.519700 0.000000 0.000000
       CHANNELS 3 Yrotation Xrotation Zrotation
       JOINT RightElbow
       {
        OFFSET 0.000000 -29.696600 0.000000
        CHANNELS 3 Yrotation Xrotation Zrotation
        JOINT RightWrist
        {
         OFFSET 0.000000 -24.004700 0.000000
         CHANNELS 3 Yrotation Xrotation Zrotation
         End Site
         {
          OFFSET 0.000000 -17.728500 0.000000
         }
        }
       }
      }
     }
     JOINT LeftCollar
     {
      OFFSET 2.921100 9.558500 0.000000
      CHANNELS 3 Yrotation Xrotation Zrotation
      JOINT LeftShoulder
      {
       OFFSET 13.519700 0.000000 0.000000
       CHANNELS 3 Yrotation Xrotation Zrotation
       JOINT LeftElbow
       {
        OFFSET 0.000000 -29.696600 0.000000
        CHANNELS 3 Yrotation Xrotation Zrotation
        JOINT LeftWrist
        {
         OFFSET 0.000000 -24.004700 0.000000
         CHANNELS 3 Yrotation Xrotation Zrotation
         End Site
         {
          OFFSET 0.000000 -17.728500 0.000000
         }
        }
       }
      }
     }
    }
   }
  }
 }
 JOINT RightHip
 {
  OFFSET -7.771700 -0.012900 -0.001300
  CHANNELS 3 Yrotation Xrotation Zrotation
  JOINT RightKnee
  {
   OFFSET 0.000000 -40.869800 0.001200
   CHANNELS 3 Yrotation Xrotation Zrotation
   JOINT RightAnkle
   {
    OFFSET 0.000000 -39.717900 0.002100
    CHANNELS 3 Yrotation Xrotation Zrotation
    JOINT RightToe
    {
     OFFSET 0.000000 -4.965400 11.033500
     CHANNELS 3 Yrotation Xrotation Zrotation
     End Site
     {
      OFFSET 0.000000 -1.423100 5.872300
     }
    }
   }
  }
 }
 JOINT LeftHip
 {
  OFFSET 7.771700 -0.012900 -0.001300
  CHANNELS 3 Yrotation Xrotation Zrotation
  JOINT LeftKnee
  {
   OFFSET 0.000000 -40.869800 0.001200
   CHANNELS 3 Yrotation Xrotation Zrotation
   JOINT LeftAnkle
   {
    OFFSET 0.000000 -39.717900 0.002100
    CHANNELS 3 Yrotation Xrotation Zrotation
    JOINT LeftToe
    {
     OFFSET 0.000000 -4.965400 11.033500
     CHANNELS 3 Yrotation Xrotation Zrotation
     End Site
     {
      OFFSET 0.000000 -1.423100 5.872300
     }
    }
   }
  }
 }
}
MOTION
Frames: 8
Frame Time: 0.008333
0.000000 85.388000 0.000000 0.000000 -5.767877 0.000000 0.000000 11.653817 0.000000 0.000000 -5.885947 0.000000 0.000000 -0.000000 0.000000 0.000000 -0.000000 0.000000 0.000000 12.528835 0.000000 0.000000 0.711642 0.000000 0.000000 -0.000000 0.000000 0.000000 0.000000 -90.000000 0.000000 -2.309062 0.000000 0.000000 2.309062 0.000000 0.000000 -0.000000 0.000000 0.000000 -0.000000 90.000000 0.000000 -2.309062 0.000000 0.000000 2.309062 0.000000 0.000000 8.520406 0.000000 0.000000 1.905762 0.000000 -0.000000 -4.658285 0.000000 0.000000 -0.000000 0.000000 0.000000 8.520406 0.000000 0.000000 1.905762 0.000000 -0.000000 -4.658285 0.000000 0.000000 -0.000000 0.000000
-7.571106 52.215164 29.378589 173.031649 -37.356757 -1.480300 4.733222 23.759434 2.683680 0.638718 3.763795 0.509743 1.001484 5.909692 0.826004 3.840011 19.842025 3.305996 0.303529 13.878023 -0.097554 0.610062 -10.021871 -0.302400 -5.750538 -1.271035 -3.301334 -5.385587 -7.040410 1.155972 -177.456651 -57.688408 -161.001936 4.473590 -13.775340 -18.378514 -7.013821 -1.033953 0.986237 7.934541 -11.342080 4.555241 179.851325 -49.022774 162.947145 -11.930919 -27.061938 28.706518 -4.043335 -44.242414 0.943923 -131.929923 85.579099 -127.058726 0.721018 -10.049295 -3.689762 0.572334 -1.031893 0.258137 -0.637520 -40.259139 3.741799 71.365673 82.778966 60.771550 -6.305948 -12.601016 9.536001 0.534924 1.512957 0.242421
-7.562532 52.215386 29.369686 172.969116 -37.358094 -1.477204 4.829498 23.834071 2.740542 0.646126 3.788558 0.516191 1.009738 5.935035 0.829588 3.860909 19.875569 3.314092 0.316231 13.878440 -0.106487 0.637602 -10.021048 -0.324081 -5.726477 -1.262164 -3.311912 -5.407775 -7.087592 1.080124 -177.439501 -56.916694 -160.976423 4.571094 -13.856876 -18.633514 -7.071424 -1.071030 0.984286 7.636961 -11.640715 4.640359 179.769256 -48.504866 163.043585 -12.022884 -27.258869 28.891638 -4.026901 -44.240481 0.986640 -132.072348 85.573561 -127.191449 0.765592 -10.068064 -3.692712 0.530599 -1.023084 0.243372 -0.611493 -40.257783 3.786702 71.522751 82.783199 60.928135 -6.260525 -12.595576 9.552942 0.482734 1.479735 0.218557
-7.560641 52.213260 29.360325 172.974957 -37.339570 -1.470250 4.851687 23.902286 2.749993 0.653930 3.813309 0.524414 1.017541 5.962856 0.833239 3.879385 19.912734 3.321608 0.330150 13.879578 -0.117713 0.668312 -10.018966 -0.350683 -5.721255 -1.284118 -3.321368 -5.419959 -7.122949 0.988658 -177.370672 -56.129084 -160.984843 4.664330 -13.948299 -18.884766 -7.131424 -1.115191 0.987319 7.343449 -11.947651 4.722022 179.683733 -47.986840 163.149853 -12.126755 -27.466418 29.099428 -4.009208 -44.260208 0.966442 -132.384973 85.569380 -127.489255 0.743429 -10.093221 -3.700484 0.539921 -1.020079 0.247282 -0.602979 -40.276233 3.775449 71.624999 82.790942 61.029021 -6.267179 -12.608540 9.558588 0.479849 1.479370 0.218304
-7.557359 52.210876 29.349251 172.980244 -37.322959 -1.464144 4.904758 24.052150 2.794375 0.634605 3.762508 0.513636 1.025023 5.992473 0.837332 3.896339 19.952469 3.329900 0.341845 13.882058 -0.132234 0.695936 -10.014215 -0.382669 -5.714173 -1.302785 -3.335029 -5.449074 -7.172977 0.889764 -177.257705 -55.324105 -161.021675 4.748572 -14.064389 -19.116233 -7.189974 -1.162958 0.992596 7.054119 -12.261381 4.800085 179.606403 -47.465981 163.260287 -12.237873 -27.665461 29.318758 -3.988769 -44.279842 0.950645 -132.665752 85.559605 -127.756430 0.723646 -10.109831 -3.705835 0.552442 -1.025208 0.252156 -0.595938 -40.292864 3.766576 71.721654 82.800774 61.123900 -6.264713 -12.618470 9.562399 0.474956 1.478732 0.216085
-7.560421 52.203318 29.342003 173.024817 -37.261467 -1.441415 4.879876 24.118428 2.774102 0.632493 3.759082 0.511895 1.032100 6.024178 0.842202 3.911232 19.995119 3.339995 0.350024 13.883574 -0.150873 0.718511 -10.011065 -0.420923 -5.699016 -1.318088 -3.354691 -5.494124 -7.233642 0.786052 -177.122404 -54.501322 -161.071577 4.825391 -14.212078 -19.321215 -7.245629 -1.214141 0.995712 6.765808 -12.579004 4.873767 179.549417 -46.941347 163.363418 -12.350751 -27.836204 29.536418 -3.963876 -44.349056 0.882720 -132.949916 85.548510 -128.027432 0.669478 -10.130364 -3.719663 0.603890 -1.028122 0.271699 -0.589911 -40.355470 3.703423 71.778831 82.805110 61.180271 -6.305528 -12.653554 9.555101 0.515450 1.515739 0.233276
-7.555350 52.197194 29.332485 173.018148 -37.220380 -1.429753 4.902695 24.177651 2.793568 0.626647 3.719502 0.501693 1.049374 6.118909 0.861716 3.923564 20.039997 3.351065 0.356044 13.882721 -0.172957 0.738453 -10.012306 -0.464913 -5.678972 -1.329972 -3.378103 -5.542872 -7.305882 0.678576 -176.977571 -53.665484 -161.123783 4.911352 -14.380791 -19.519947 -7.297681 -1.268052 0.993742 6.478399 -12.896735 4.943884 179.510245 -46.416725 163.453436 -12.458853 -27.967682 29.738751 -3.938651 -44.395646 0.873572 -133.182749 85.536177 -128.248162 0.661651 -10.152409 -3.720871 0.605020 -1.023474 0.272171 -0.574396 -40.396628 3.705227 71.898895 82.815256 61.289972 -6.306345 -12.674695 9.559745 0.507401 1.521767 0.238742
-7.542965 52.191717 29.321827 172.967595 -37.192921 -1.431262 4.976137 24.245206 2.855804 0.635724 3.772627 0.512081 1.049400 6.122158 0.859892 3.933898 20.085759 3.361920 0.361949 13.883012 -0.195299 0.758309 -10.011560 -0.509355 -5.658546 -1.333659 -3.397911 -5.589907 -7.391961 0.566288 -176.834173 -52.821176 -161.170691 5.012186 -14.561871 -19.719752 -7.346282 -1.315314 0.990520 6.192294 -13.217532 5.012432 179.469903 -45.902832 163.539729 -12.560539 -28.065835 29.920274 -3.926156 -44.426043 0.922259 -133.339971 85.523517 -128.399501 0.717128 -10.172921 -3.721362 0.551455 -1.012557 0.260455 -0.557300 -40.425147 3.759625 72.041785 82.826629 61.425293 -6.269097 -12.677203 9.575325 0.462696 1.498939 0.223072
